<svg id="Layer_1" enable-background="new 0 0 509.991 509.991" height="512" viewBox="0 0 509.991 509.991" width="512" xmlns="http://www.w3.org/2000/svg"><g><g><path clip-rule="evenodd" d="m323.632 176.219h-68.636-68.636c-38.362 0-3.987 75.018-68.949 75.018v29.648c0 5.696.627 11.563 1.823 17.516 9.057 45.597 51.15 96.207 101.302 114.805 24.834 9.199 44.115 9.199 68.921 0 50.181-18.598 92.274-69.208 101.331-114.805 1.168-5.952 1.794-11.819 1.794-17.516v-29.648c-64.963-.001-30.559-75.018-68.95-75.018z" fill="#ffece4" fill-rule="evenodd"/></g><g><path clip-rule="evenodd" d="m254.996 89.866c-68.779 0-137.586 49.898-137.586 149.665v11.705h7.462c50.922 0 26.059-54.939 61.488-54.939h68.636 68.636c35.457 0 10.566 54.939 61.488 54.939h7.462v-11.705c-.001-99.768-68.808-149.665-137.586-149.665z" fill="#c38959" fill-rule="evenodd"/></g><g><path clip-rule="evenodd" d="m348.95 251.236v29.648c0 5.696-.627 11.563-1.794 17.516-9.057 45.597-51.15 96.207-101.331 114.805-4.357 1.623-8.544 2.962-12.645 4.016 19.138 4.899 35.828 3.589 56.276-4.016 50.181-18.598 92.274-69.208 101.331-114.805 1.168-5.952 1.794-11.819 1.794-17.516v-29.648h-7.462c-26.002 0-32.239-14.326-36.824-28.338.427 5.383.655 10.937.655 16.633z" fill="#ffddce" fill-rule="evenodd"/></g><g><path clip-rule="evenodd" d="m392.581 239.531c0-99.767-68.807-149.665-137.586-149.665-7.291 0-14.582.57-21.815 1.709 49.099 7.633 94.41 41.268 110.017 100.935 2.478 9.484 4.215 19.595 5.098 30.389 4.585 14.012 10.822 28.338 36.824 28.338h7.462z" fill="#b17a4a" fill-rule="evenodd"/></g><g><path d="m460.946 305.9h-411.872c-4.142 0-7.5-3.358-7.5-7.5s3.358-7.5 7.5-7.5h411.871c4.142 0 7.5 3.358 7.5 7.5s-3.357 7.5-7.499 7.5z" fill="#ff8389"/></g><g><path d="m7.507 118.982c-4.142 0-7.5-3.358-7.5-7.5v-87.976c0-12.961 10.545-23.506 23.505-23.506h87.974c4.142 0 7.5 3.358 7.5 7.5s-3.358 7.5-7.5 7.5h-87.974c-4.69 0-8.506 3.816-8.506 8.506v87.977c.001 4.142-3.357 7.499-7.499 7.499z" fill="#566b74"/></g><g><path d="m502.485 118.982c-4.142 0-7.5-3.358-7.5-7.5v-87.976c0-4.69-3.803-8.506-8.477-8.506h-88.002c-4.142 0-7.5-3.358-7.5-7.5s3.358-7.5 7.5-7.5h88.002c12.945 0 23.477 10.545 23.477 23.506v87.977c0 4.142-3.358 7.499-7.5 7.499z" fill="#566b74"/></g><g><path d="m111.487 509.991h-87.975c-12.961 0-23.506-10.532-23.506-23.478v-88.005c0-4.142 3.358-7.5 7.5-7.5s7.5 3.358 7.5 7.5v88.005c0 4.674 3.816 8.478 8.506 8.478h87.974c4.142 0 7.5 3.358 7.5 7.5s-3.357 7.5-7.499 7.5z" fill="#566b74"/></g><g><path d="m486.508 509.991h-88.002c-4.142 0-7.5-3.358-7.5-7.5s3.358-7.5 7.5-7.5h88.002c4.674 0 8.477-3.803 8.477-8.478v-88.005c0-4.142 3.358-7.5 7.5-7.5s7.5 3.358 7.5 7.5v88.005c0 12.946-10.532 23.478-23.477 23.478z" fill="#566b74"/></g><g><path clip-rule="evenodd" d="m53.074 298.4c0-12.845-10.424-23.269-23.296-23.269-12.844 0-23.268 10.424-23.268 23.269 0 12.873 10.424 23.269 23.268 23.269 12.873-.001 23.296-10.396 23.296-23.269z" fill="#ccf49f" fill-rule="evenodd"/></g><g><path clip-rule="evenodd" d="m503.51 298.4c0-12.845-10.424-23.269-23.296-23.269-12.844 0-23.268 10.424-23.268 23.269 0 12.873 10.424 23.269 23.268 23.269 12.872-.001 23.296-10.396 23.296-23.269z" fill="#ccf49f" fill-rule="evenodd"/></g></g></svg>